<?xml version="1.0" standalone="no"?>
<!DOCTYPE svg PUBLIC "-//W3C//DTD SVG 20010904//EN"
 "http://www.w3.org/TR/2001/REC-SVG-20010904/DTD/svg10.dtd">
<svg version="1.0" xmlns="http://www.w3.org/2000/svg"
 width="500.000000pt" height="500.000000pt" viewBox="0 0 500.000000 500.000000"
 preserveAspectRatio="xMidYMid meet">

<g transform="translate(0.000000,500.000000) scale(0.100000,-0.100000)"
fill="#000000" stroke="none">
<path d="M2489 3636 c-63 -30 -244 -113 -404 -185 -429 -195 -522 -243 -588
-302 -93 -82 -101 -106 -107 -294 l-5 -160 -35 -3 c-76 -5 -165 -24 -199 -42
-108 -55 -164 -183 -141 -320 11 -67 47 -151 67 -157 6 -2 14 9 18 26 17 79
93 125 210 125 l80 1 -1 -140 c-1 -183 -6 -207 -55 -256 -30 -30 -36 -41 -24
-45 8 -3 70 -4 138 -3 119 4 127 6 193 39 53 27 76 46 101 84 66 97 72 160 73
709 0 298 4 463 11 493 14 54 66 102 146 135 46 18 56 20 64 8 11 -19 11
-1340 -1 -1453 -22 -216 -121 -269 -375 -202 -156 41 -249 52 -330 38 -84 -14
-195 -66 -257 -121 -75 -67 -151 -197 -172 -297 l-7 -31 68 34 c66 34 71 35
153 30 47 -3 153 -22 235 -42 201 -49 359 -58 454 -25 146 49 221 143 266 330
15 61 19 137 24 395 l6 320 165 0 165 0 3 -307 2 -307 -53 -40 c-70 -51 -126
-116 -165 -189 -18 -33 -32 -63 -32 -66 0 -3 46 -3 103 1 170 10 304 -31 420
-128 l47 -40 73 59 c168 138 414 288 542 332 88 30 91 29 104 -39 16 -84 73
-191 125 -239 47 -43 145 -98 186 -103 19 -3 31 6 64 54 54 79 140 156 243
219 l85 52 -78 26 c-133 44 -172 72 -208 149 -21 45 -21 56 -24 758 l-3 712
39 20 c82 42 182 157 182 209 0 8 -23 12 -73 12 -139 0 -236 49 -313 156 l-45
63 -69 -52 c-137 -105 -352 -215 -428 -220 l-27 -2 -3 128 -3 128 -27 -3 -27
-3 -5 -135 -5 -135 -76 1 c-59 1 -89 7 -133 27 -72 33 -162 123 -200 200 -16
31 -32 59 -36 62 -3 2 -58 -20 -121 -49z m-238 -272 c36 -36 90 -82 120 -103
l54 -37 3 -258 c2 -185 -1 -263 -9 -273 -9 -11 -44 -13 -168 -11 l-156 3 0
350 0 349 40 23 c22 12 42 23 45 23 2 0 34 -30 71 -66z m1042 -48 c36 -35 86
-76 111 -91 l46 -27 -2 -257 -3 -256 -160 0 -160 0 -3 314 c-2 232 1 317 10
328 11 14 76 52 89 53 4 0 36 -29 72 -64z m-226 -851 c2 -446 -1 -816 -5 -823
-6 -9 -21 -5 -63 17 -30 16 -78 37 -107 46 -29 10 -57 26 -62 36 -7 11 -9 287
-8 745 l3 727 70 17 c39 9 86 24 105 33 70 32 65 98 67 -798z m306 -133 l77
-2 0 -288 0 -289 -157 -70 c-87 -39 -161 -69 -165 -66 -5 2 -8 161 -8 353 0
293 2 350 14 357 14 8 50 8 239 5z"/>
</g>
</svg>
