<?xml version="1.0" encoding="UTF-8"?>
<!DOCTYPE svg PUBLIC "-//W3C//DTD SVG 1.1//EN" "http://www.w3.org/Graphics/SVG/1.1/DTD/svg11.dtd">
<svg xmlns="http://www.w3.org/2000/svg" version="1.1" width="500px" height="500px" style="shape-rendering:geometricPrecision; text-rendering:geometricPrecision; image-rendering:optimizeQuality; fill-rule:evenodd; clip-rule:evenodd" xmlns:xlink="http://www.w3.org/1999/xlink">
<g><path style="opacity:0.647" fill="#454545" d="M 365.5,131.5 C 364.5,131.5 363.5,131.5 362.5,131.5C 363.74,129.015 364.74,129.015 365.5,131.5 Z"/></g>
<g><path style="opacity:0.999" fill="#0f0f0f" d="M 262.5,132.5 C 266.833,141.668 273.166,149.168 281.5,155C 288.69,158.851 296.357,160.351 304.5,159.5C 305.268,158.737 305.768,157.737 306,156.5C 306.5,148.841 306.666,141.174 306.5,133.5C 308.167,133.5 309.833,133.5 311.5,133.5C 311.5,141.833 311.5,150.167 311.5,158.5C 313.099,158.768 314.432,158.434 315.5,157.5C 328.964,152.768 341.631,146.434 353.5,138.5C 355.749,137.92 357.415,136.587 358.5,134.5C 360.404,134.262 361.738,133.262 362.5,131.5C 363.5,131.5 364.5,131.5 365.5,131.5C 365.738,133.404 366.738,134.738 368.5,135.5C 369.906,135.973 370.573,136.973 370.5,138.5C 371.167,141.167 372.833,142.833 375.5,143.5C 380.122,146.976 385.122,149.643 390.5,151.5C 395.975,152.489 401.642,152.822 407.5,152.5C 407.5,153.5 407.5,154.5 407.5,155.5C 406.141,159.882 403.974,163.882 401,167.5C 396.399,171.213 391.565,174.547 386.5,177.5C 385.335,223.998 385.168,270.665 386,317.5C 386.383,318.056 386.883,318.389 387.5,318.5C 389.71,327.712 395.377,333.712 404.5,336.5C 408.163,338.595 412.163,340.095 416.5,341C 415.944,341.383 415.611,341.883 415.5,342.5C 401.636,350.029 390.303,360.363 381.5,373.5C 370.268,373.3 361.101,368.633 354,359.5C 349.208,352.917 346.374,345.583 345.5,337.5C 345.5,336.167 345.5,334.833 345.5,333.5C 343.473,333.338 341.473,333.505 339.5,334C 338.944,334.383 338.611,334.883 338.5,335.5C 314.901,345.295 293.568,358.628 274.5,375.5C 260.199,362.066 243.199,356.4 223.5,358.5C 220.918,358.975 218.918,358.308 217.5,356.5C 221.602,345.067 228.936,336.401 239.5,330.5C 240.496,330.586 241.329,330.252 242,329.5C 242.5,308.503 242.667,287.503 242.5,266.5C 238.5,266.5 234.5,266.5 230.5,266.5C 224.833,266.5 219.167,266.5 213.5,266.5C 211.833,266.5 210.167,266.5 208.5,266.5C 208.839,290.868 208.173,315.201 206.5,339.5C 206.5,339.833 206.5,340.167 206.5,340.5C 204.603,342.698 203.603,345.364 203.5,348.5C 200.638,359.359 193.971,366.693 183.5,370.5C 180.215,370.928 177.215,371.928 174.5,373.5C 168.013,374.654 161.346,374.821 154.5,374C 139.424,370.605 124.258,367.772 109,365.5C 106.5,365.667 104,365.833 101.5,366C 97.3283,367.588 93.3283,369.421 89.5,371.5C 88.596,370.791 88.2627,369.791 88.5,368.5C 89.9238,366.485 90.5905,364.152 90.5,361.5C 91.0749,358.088 92.4082,355.088 94.5,352.5C 95.9063,352.027 96.573,351.027 96.5,349.5C 97.9063,349.027 98.573,348.027 98.5,346.5C 101.243,344.761 103.243,342.427 104.5,339.5C 107.089,338.581 109.089,336.914 110.5,334.5C 113.678,331.742 117.345,329.742 121.5,328.5C 129.052,326.764 136.719,325.764 144.5,325.5C 150.125,325.58 155.458,326.58 160.5,328.5C 163.219,329.913 166.219,330.58 169.5,330.5C 176.026,333.93 182.693,334.263 189.5,331.5C 196.195,328.144 200.195,322.811 201.5,315.5C 202.321,312.359 202.821,309.025 203,305.5C 203.5,258.168 203.667,210.835 203.5,163.5C 200.084,163.528 197.084,164.528 194.5,166.5C 190.242,168.793 186.576,171.793 183.5,175.5C 182.034,176.347 181.2,177.68 181,179.5C 180.5,210.165 180.333,240.832 180.5,271.5C 179.511,279.095 178.178,286.761 176.5,294.5C 173.677,302.155 168.344,307.321 160.5,310C 150.129,312.603 139.796,313.103 129.5,311.5C 129.389,310.883 129.056,310.383 128.5,310C 132.964,307.723 135.631,304.223 136.5,299.5C 137.302,298.048 137.802,296.382 138,294.5C 138.667,285.5 138.667,276.5 138,267.5C 133.067,266.176 128.234,266.176 123.5,267.5C 118.292,269.268 113.958,272.268 110.5,276.5C 109.167,278.5 107.833,280.5 106.5,282.5C 105.542,282.047 104.708,281.381 104,280.5C 102.241,276.991 101.074,273.325 100.5,269.5C 100.5,263.833 100.5,258.167 100.5,252.5C 100.837,248.164 102.504,244.497 105.5,241.5C 107.5,240.167 109.167,238.5 110.5,236.5C 110.973,235.094 111.973,234.427 113.5,234.5C 118.307,233.338 122.974,232.005 127.5,230.5C 131.167,230.5 134.833,230.5 138.5,230.5C 137.97,218.366 138.636,206.366 140.5,194.5C 140.845,191.802 142.178,189.802 144.5,188.5C 146.167,187.5 147.5,186.167 148.5,184.5C 150.749,183.92 152.415,182.587 153.5,180.5C 158.177,176.491 163.511,173.491 169.5,171.5C 173.836,171.163 177.503,169.496 180.5,166.5C 184.165,166.498 187.165,165.165 189.5,162.5C 189.842,161.662 190.508,161.328 191.5,161.5C 195.165,161.498 198.165,160.165 200.5,157.5C 201.514,156.326 202.847,155.66 204.5,155.5C 208.165,155.498 211.165,154.165 213.5,151.5C 213.842,150.662 214.508,150.328 215.5,150.5C 219.836,150.163 223.503,148.496 226.5,145.5C 230.165,145.498 233.165,144.165 235.5,141.5C 235.842,140.662 236.508,140.328 237.5,140.5C 241.165,140.498 244.165,139.165 246.5,136.5C 246.842,135.662 247.508,135.328 248.5,135.5C 252.552,134.895 256.385,133.562 260,131.5C 260.902,131.743 261.735,132.077 262.5,132.5 Z M 239.5,175.5 C 239.783,176.289 240.283,176.956 241,177.5C 241.667,194.5 241.667,211.5 241,228.5C 239.933,229.191 238.766,229.691 237.5,230C 228.84,230.5 220.173,230.666 211.5,230.5C 209.526,207.73 208.86,184.73 209.5,161.5C 212.052,160.307 214.552,158.973 217,157.5C 222.179,162.199 227.345,167.032 232.5,172C 234.577,173.705 236.91,174.872 239.5,175.5 Z M 344.5,206.5 C 343.833,214.01 343.167,221.677 342.5,229.5C 332.637,230.824 322.803,230.824 313,229.5C 312.5,208.836 312.333,188.169 312.5,167.5C 315.312,165.592 318.312,163.925 321.5,162.5C 327.631,169.304 334.631,174.971 342.5,179.5C 343.318,188.498 343.984,197.498 344.5,206.5 Z M 302.5,172.5 C 303.496,172.414 304.329,172.748 305,173.5C 305.667,224.833 305.667,276.167 305,327.5C 305.03,330.361 304.197,332.695 302.5,334.5C 296.732,330.683 290.399,328.016 283.5,326.5C 282.362,277.515 282.195,228.515 283,179.5C 284.622,178.901 286.122,178.234 287.5,177.5C 292.915,176.806 297.915,175.14 302.5,172.5 Z M 315.5,266.5 C 320.986,266.669 326.653,266.669 332.5,266.5C 335.962,267.482 339.629,267.815 343.5,267.5C 343.82,286.576 343.487,305.576 342.5,324.5C 339.088,325.075 336.088,326.408 333.5,328.5C 327.864,330.322 322.531,332.655 317.5,335.5C 315.914,336.413 314.414,336.413 313,335.5C 312.5,312.836 312.333,290.169 312.5,267.5C 313.791,267.737 314.791,267.404 315.5,266.5 Z"/></g>
<g><path style="opacity:0.906" fill="#2f2f2f" d="M 262.5,132.5 C 261.735,132.077 260.902,131.743 260,131.5C 256.385,133.562 252.552,134.895 248.5,135.5C 252.16,133.003 256.16,131.003 260.5,129.5C 261.919,130.005 262.585,131.005 262.5,132.5 Z"/></g>
<g><path style="opacity:0.592" fill="#3c3b3b" d="M 362.5,131.5 C 361.738,133.262 360.404,134.262 358.5,134.5C 359.262,132.738 360.596,131.738 362.5,131.5 Z"/></g>
<g><path style="opacity:0.478" fill="#3e3e3e" d="M 365.5,131.5 C 367.262,132.262 368.262,133.596 368.5,135.5C 366.738,134.738 365.738,133.404 365.5,131.5 Z"/></g>
<g><path style="opacity:0.715" fill="#363636" d="M 311.5,132.5 C 311.5,132.833 311.5,133.167 311.5,133.5C 309.833,133.5 308.167,133.5 306.5,133.5C 306.666,141.174 306.5,148.841 306,156.5C 305.768,157.737 305.268,158.737 304.5,159.5C 304.248,150.127 304.582,140.793 305.5,131.5C 307.735,131.205 309.735,131.539 311.5,132.5 Z"/></g>
<g><path style="opacity:0.714" fill="#313030" d="M 358.5,134.5 C 357.415,136.587 355.749,137.92 353.5,138.5C 354.585,136.413 356.251,135.08 358.5,134.5 Z"/></g>
<g><path style="opacity:0.835" fill="#262525" d="M 246.5,136.5 C 244.165,139.165 241.165,140.498 237.5,140.5C 240.088,138.408 243.088,137.075 246.5,136.5 Z"/></g>
<g><path style="opacity:0.659" fill="#2e2e2e" d="M 370.5,138.5 C 372.5,139.833 374.167,141.5 375.5,143.5C 372.833,142.833 371.167,141.167 370.5,138.5 Z"/></g>
<g><path style="opacity:0.886" fill="#262626" d="M 235.5,141.5 C 233.165,144.165 230.165,145.498 226.5,145.5C 229.088,143.408 232.088,142.075 235.5,141.5 Z"/></g>
<g><path style="opacity:0.252" fill="#353434" d="M 311.5,132.5 C 312.329,140.323 312.829,148.323 313,156.5C 313.671,157.252 314.504,157.586 315.5,157.5C 314.432,158.434 313.099,158.768 311.5,158.5C 311.5,150.167 311.5,141.833 311.5,133.5C 311.5,133.167 311.5,132.833 311.5,132.5 Z"/></g>
<g><path style="opacity:0.898" fill="#282828" d="M 226.5,145.5 C 223.503,148.496 219.836,150.163 215.5,150.5C 218.74,148.049 222.407,146.382 226.5,145.5 Z"/></g>
<g><path style="opacity:0.265" fill="#494848" d="M 390.5,151.5 C 396.5,151.5 402.5,151.5 408.5,151.5C 408.768,153.099 408.434,154.432 407.5,155.5C 407.5,154.5 407.5,153.5 407.5,152.5C 401.642,152.822 395.975,152.489 390.5,151.5 Z"/></g>
<g><path style="opacity:0.851" fill="#2b2a2a" d="M 213.5,151.5 C 211.165,154.165 208.165,155.498 204.5,155.5C 207.088,153.408 210.088,152.075 213.5,151.5 Z"/></g>
<g><path style="opacity:0.91" fill="#292929" d="M 200.5,157.5 C 198.165,160.165 195.165,161.498 191.5,161.5C 194.088,159.408 197.088,158.075 200.5,157.5 Z"/></g>
<g><path style="opacity:0.368" fill="#353434" d="M 209.5,161.5 C 208.86,184.73 209.526,207.73 211.5,230.5C 210.833,230.5 210.167,230.5 209.5,230.5C 208.167,207.5 208.167,184.5 209.5,161.5 Z"/></g>
<g><path style="opacity:0.859" fill="#292929" d="M 189.5,162.5 C 187.165,165.165 184.165,166.498 180.5,166.5C 183.088,164.408 186.088,163.075 189.5,162.5 Z"/></g>
<g><path style="opacity:0.925" fill="#282727" d="M 180.5,166.5 C 177.503,169.496 173.836,171.163 169.5,171.5C 172.74,169.049 176.407,167.382 180.5,166.5 Z"/></g>
<g><path style="opacity:0.518" fill="#2f2f2f" d="M 201.5,315.5 C 201.561,266.089 201.728,216.756 202,167.5C 201.667,166.5 201.333,165.5 201,164.5C 198.993,165.669 196.827,166.335 194.5,166.5C 197.084,164.528 200.084,163.528 203.5,163.5C 203.667,210.835 203.5,258.168 203,305.5C 202.821,309.025 202.321,312.359 201.5,315.5 Z"/></g>
<g><path style="opacity:0.48" fill="#262626" d="M 302.5,334.5 C 304.197,332.695 305.03,330.361 305,327.5C 305.667,276.167 305.667,224.833 305,173.5C 304.329,172.748 303.496,172.414 302.5,172.5C 303.287,170.896 304.62,170.229 306.5,170.5C 306.5,225.833 306.5,281.167 306.5,336.5C 304.62,336.771 303.287,336.104 302.5,334.5 Z"/></g>
<g><path style="opacity:0.808" fill="#313131" d="M 153.5,180.5 C 152.415,182.587 150.749,183.92 148.5,184.5C 149.585,182.413 151.251,181.08 153.5,180.5 Z"/></g>
<g><path style="opacity:0.424" fill="#444343" d="M 148.5,184.5 C 147.5,186.167 146.167,187.5 144.5,188.5C 144.833,186.167 146.167,184.833 148.5,184.5 Z"/></g>
<g><path style="opacity:0.241" fill="#2f2f2f" d="M 386.5,177.5 C 386.186,224.523 386.52,271.523 387.5,318.5C 386.883,318.389 386.383,318.056 386,317.5C 385.168,270.665 385.335,223.998 386.5,177.5 Z"/></g>
<g><path style="opacity:0.327" fill="#292828" d="M 239.5,175.5 C 240.496,175.414 241.329,175.748 242,176.5C 242.667,194.5 242.667,212.5 242,230.5C 231.069,231.829 220.235,231.829 209.5,230.5C 210.167,230.5 210.833,230.5 211.5,230.5C 220.173,230.666 228.84,230.5 237.5,230C 238.766,229.691 239.933,229.191 241,228.5C 241.667,211.5 241.667,194.5 241,177.5C 240.283,176.956 239.783,176.289 239.5,175.5 Z"/></g>
<g><path style="opacity:0.08" fill="#414040" d="M 183.5,175.5 C 183.108,177.179 182.608,178.846 182,180.5C 181.832,212.003 181.332,243.336 180.5,274.5C 180.5,273.5 180.5,272.5 180.5,271.5C 180.333,240.832 180.5,210.165 181,179.5C 181.2,177.68 182.034,176.347 183.5,175.5 Z"/></g>
<g><path style="opacity:0.498" fill="#333232" d="M 140.5,194.5 C 138.636,206.366 137.97,218.366 138.5,230.5C 134.833,230.5 131.167,230.5 127.5,230.5C 130.287,229.523 133.287,229.19 136.5,229.5C 137.199,219.52 137.699,209.52 138,199.5C 138.374,197.509 139.207,195.842 140.5,194.5 Z"/></g>
<g><path style="opacity:0.302" fill="#2f2e2e" d="M 312.5,167.5 C 312.333,188.169 312.5,208.836 313,229.5C 322.803,230.824 332.637,230.824 342.5,229.5C 343.167,221.677 343.833,214.01 344.5,206.5C 344.816,214.752 344.482,222.919 343.5,231C 332.923,231.819 322.423,231.652 312,230.5C 311.171,209.329 311.337,188.329 312.5,167.5 Z"/></g>
<g><path style="opacity:0.949" fill="#292929" d="M 127.5,230.5 C 122.974,232.005 118.307,233.338 113.5,234.5C 117.675,231.779 122.341,230.446 127.5,230.5 Z"/></g>
<g><path style="opacity:0.471" fill="#474747" d="M 110.5,236.5 C 109.167,238.5 107.5,240.167 105.5,241.5C 106.167,238.833 107.833,237.167 110.5,236.5 Z"/></g>
<g><path style="opacity:0.466" fill="#202020" d="M 287.5,177.5 C 286.122,178.234 284.622,178.901 283,179.5C 282.195,228.515 282.362,277.515 283.5,326.5C 282.167,302.176 281.5,277.509 281.5,252.5C 281.667,227.833 281.833,203.167 282,178.5C 283.699,177.594 285.533,177.261 287.5,177.5 Z"/></g>
<g><path style="opacity:0.684" fill="#393939" d="M 100.5,252.5 C 100.5,258.167 100.5,263.833 100.5,269.5C 98.1288,263.794 98.1288,258.127 100.5,252.5 Z"/></g>
<g><path style="opacity:0.573" fill="#2b2b2b" d="M 180.5,271.5 C 180.5,272.5 180.5,273.5 180.5,274.5C 180.55,279.552 180.05,284.552 179,289.5C 178.626,291.491 177.793,293.158 176.5,294.5C 178.178,286.761 179.511,279.095 180.5,271.5 Z"/></g>
<g><path style="opacity:0.443" fill="#2e2e2e" d="M 123.5,267.5 C 128.234,266.176 133.067,266.176 138,267.5C 138.667,276.5 138.667,285.5 138,294.5C 137.802,296.382 137.302,298.048 136.5,299.5C 137.349,289.177 137.515,278.843 137,268.5C 132.599,267.533 128.099,267.2 123.5,267.5 Z"/></g>
<g><path style="opacity:0.268" fill="#313030" d="M 213.5,266.5 C 212.432,267.434 211.099,267.768 209.5,267.5C 209.667,286.17 209.5,304.836 209,323.5C 208.751,329.064 207.918,334.398 206.5,339.5C 208.173,315.201 208.839,290.868 208.5,266.5C 210.167,266.5 211.833,266.5 213.5,266.5 Z"/></g>
<g><path style="opacity:0.213" fill="#313131" d="M 315.5,266.5 C 314.791,267.404 313.791,267.737 312.5,267.5C 312.333,290.169 312.5,312.836 313,335.5C 314.414,336.413 315.914,336.413 317.5,335.5C 316.089,337.539 314.089,338.539 311.5,338.5C 311.5,314.5 311.5,290.5 311.5,266.5C 312.833,266.5 314.167,266.5 315.5,266.5 Z"/></g>
<g><path style="opacity:0.506" fill="#383838" d="M 110.5,276.5 C 110.287,279.475 109.287,282.142 107.5,284.5C 106.702,284.043 106.369,283.376 106.5,282.5C 107.833,280.5 109.167,278.5 110.5,276.5 Z"/></g>
<g><path style="opacity:0.029" fill="#3b3a3a" d="M 332.5,266.5 C 336.5,266.5 340.5,266.5 344.5,266.5C 345.154,286.196 344.488,305.529 342.5,324.5C 343.487,305.576 343.82,286.576 343.5,267.5C 339.629,267.815 335.962,267.482 332.5,266.5 Z"/></g>
<g><path style="opacity:0.321" fill="#2a2929" d="M 230.5,266.5 C 234.5,266.5 238.5,266.5 242.5,266.5C 242.667,287.503 242.5,308.503 242,329.5C 241.329,330.252 240.496,330.586 239.5,330.5C 239.783,329.711 240.283,329.044 241,328.5C 241.667,308.833 241.667,289.167 241,269.5C 237.64,267.93 234.14,266.93 230.5,266.5 Z"/></g>
<g><path style="opacity:0.49" fill="#3b3b3b" d="M 136.5,299.5 C 135.631,304.223 132.964,307.723 128.5,310C 129.056,310.383 129.389,310.883 129.5,311.5C 127.645,311.728 126.812,311.061 127,309.5C 131.1,306.904 134.267,303.571 136.5,299.5 Z"/></g>
<g><path style="opacity:0.627" fill="#2d2d2d" d="M 144.5,325.5 C 136.719,325.764 129.052,326.764 121.5,328.5C 128.911,325.155 136.578,324.155 144.5,325.5 Z"/></g>
<g><path style="opacity:0.784" fill="#252525" d="M 342.5,324.5 C 340.165,327.165 337.165,328.498 333.5,328.5C 336.088,326.408 339.088,325.075 342.5,324.5 Z"/></g>
<g><path style="opacity:0.059" fill="#333333" d="M 160.5,328.5 C 163.781,328.42 166.781,329.087 169.5,330.5C 166.219,330.58 163.219,329.913 160.5,328.5 Z"/></g>
<g><path style="opacity:0.529" fill="#272727" d="M 169.5,330.5 C 176.109,332.381 182.775,332.715 189.5,331.5C 182.693,334.263 176.026,333.93 169.5,330.5 Z"/></g>
<g><path style="opacity:0.078" fill="#302f2f" d="M 345.5,337.5 C 344.596,336.791 344.263,335.791 344.5,334.5C 342.435,334.517 340.435,334.85 338.5,335.5C 338.611,334.883 338.944,334.383 339.5,334C 341.473,333.505 343.473,333.338 345.5,333.5C 345.5,334.833 345.5,336.167 345.5,337.5 Z"/></g>
<g><path style="opacity:0.765" fill="#2e2e2e" d="M 110.5,334.5 C 109.089,336.914 107.089,338.581 104.5,339.5C 105.911,337.086 107.911,335.419 110.5,334.5 Z"/></g>
<g><path style="opacity:0.149" fill="#494848" d="M 404.5,336.5 C 409.394,337.388 414.061,338.888 418.5,341C 417.756,342.039 416.756,342.539 415.5,342.5C 415.611,341.883 415.944,341.383 416.5,341C 412.163,340.095 408.163,338.595 404.5,336.5 Z"/></g>
<g><path style="opacity:0.718" fill="#323232" d="M 104.5,339.5 C 103.243,342.427 101.243,344.761 98.5,346.5C 99.7573,343.573 101.757,341.239 104.5,339.5 Z"/></g>
<g><path style="opacity:0.341" fill="#2e2e2e" d="M 206.5,340.5 C 206.097,343.486 205.097,346.152 203.5,348.5C 203.603,345.364 204.603,342.698 206.5,340.5 Z"/></g>
<g><path style="opacity:0.322" fill="#3d3d3d" d="M 98.5,346.5 C 98.573,348.027 97.9063,349.027 96.5,349.5C 96.427,347.973 97.0937,346.973 98.5,346.5 Z"/></g>
<g><path style="opacity:0.251" fill="#424242" d="M 96.5,349.5 C 96.573,351.027 95.9063,352.027 94.5,352.5C 94.427,350.973 95.0937,349.973 96.5,349.5 Z"/></g>
<g><path style="opacity:0.475" fill="#3b3a3a" d="M 217.5,356.5 C 218.918,358.308 220.918,358.975 223.5,358.5C 221.782,359.224 219.948,359.891 218,360.5C 216.37,359.182 216.203,357.849 217.5,356.5 Z"/></g>
<g><path style="opacity:0.525" fill="#404040" d="M 90.5,361.5 C 90.5905,364.152 89.9238,366.485 88.5,368.5C 88.4095,365.848 89.0762,363.515 90.5,361.5 Z"/></g>
<g><path style="opacity:0.122" fill="#605f5f" d="M 88.5,368.5 C 88.2627,369.791 88.596,370.791 89.5,371.5C 88.528,372.751 87.8614,372.418 87.5,370.5C 87.5427,369.584 87.8761,368.917 88.5,368.5 Z"/></g>
<g><path style="opacity:0.035" fill="#353434" d="M 183.5,370.5 C 180.916,372.472 177.916,373.472 174.5,373.5C 177.215,371.928 180.215,370.928 183.5,370.5 Z"/></g>
</svg>
